<svg width="848" height="524" viewBox="0 0 848 524" fill="none" xmlns="http://www.w3.org/2000/svg">
<path d="M272.7 521.709C270.799 520.748 268.352 519.123 267.261 518.099C266.171 517.074 264.996 516.519 264.651 516.864C264.305 517.21 262.285 517.543 260.162 517.606C258.039 517.668 254.909 518.094 253.206 518.551C251.503 519.008 250.316 519.05 250.567 518.644C251.43 517.248 248.665 517.907 246.494 519.615C244.073 521.519 239.784 521.983 238.302 520.502C237.566 519.766 237.614 518.9 238.505 516.86C240.323 512.694 239.721 505.258 237.194 500.686C236.019 498.557 234.719 496.463 234.306 496.031C233.893 495.599 233.549 493.632 233.542 492.699C233.16 493.51 231.937 489.452 229.878 487.46C228.261 485.988 226.937 484.458 226.937 484.059C226.937 483.659 224.683 481.658 221.927 479.611C217.245 476.132 216.637 475.909 212.621 476.206C208.331 476.523 202.72 477.114 198.812 477.661C197.675 477.82 194.954 478.008 192.767 478.079C190.579 478.15 188.961 478.487 189.172 478.829C189.383 479.17 188.753 479.511 187.773 479.586C186.793 479.662 184.316 480.151 182.269 480.672C180.221 481.193 176.014 481.977 172.919 482.414C169.824 482.851 165.73 483.753 163.82 484.418C158.707 486.199 156.922 485.963 150.549 482.666C145.967 480.295 145.413 478.704 141.025 479.673C139.063 480.106 137.823 480.215 136.832 479.314C133.483 476.27 133.275 476.542 130.983 476.065C130.983 476.724 118.689 470.934 115.501 468.737C110.473 465.27 110.633 465.888 108.134 463.234C104.884 460.422 103.89 460.014 100.3 460.014C98.0379 460.014 94.8965 459.474 93.3188 458.815C91.7411 458.156 90.4502 457.855 90.4502 458.146C90.4502 458.437 89.9473 457.988 89.3327 457.148C88.4075 455.883 87.5438 455.712 84.3129 456.155C79.2225 456.852 77.4658 455.255 69.5643 447.457C66.0672 444.005 62.5166 441.819 61.6739 441.819C60.1936 441.819 58.6789 440.574 56.8909 439.053C55.0048 434.816 49.3929 435.659 48.7174 432.911C48.329 432.911 46.8506 430.292 46.7311 426.312C46.537 419.842 46.305 418.901 44.5424 417.422C42.4826 415.694 41.6351 412.396 42.7786 410.559C43.1652 407.511 44.622 406.913 43.3 403.776C42.745 402.739 42.754 401.491 43.327 399.984C44.0432 398.1 43.8884 397.425 42.3691 395.809C41.3724 394.748 39.9518 393.688 39.2123 393.453C38.4728 393.219 37.1926 391.884 36.3673 390.487C35.0712 388.293 34.4522 387.977 31.8225 388.167C28.0887 388.437 26.7569 387.69 26.7543 385.326C26.7532 384.329 25.2643 381.323 23.4455 378.647C21.6268 375.97 20.1387 373.258 20.1387 372.622C20.1387 371.985 19.5419 370.553 18.8125 369.44C17.7553 367.827 17.6024 366.26 18.0591 361.714C18.6872 355.46 17.7381 352.49 13.7474 348.223C11.9727 346.325 11.7532 345.507 12.194 342.433C12.4762 340.465 12.7613 336.361 12.8274 333.314C12.9035 329.804 13.28 327.834 13.8548 327.938C15.2016 328.183 14.5592 324.526 12.8149 322.02C11.9777 320.817 10.8702 318.587 10.3539 317.064C9.83754 315.542 8.29706 313.023 6.93054 311.467C5.56401 309.91 4.22867 307.621 3.96314 306.378C3.69762 305.136 3.08566 303.189 2.60324 302.051C1.36427 299.131 1.03604 294.644 1.9381 292.959C2.46022 291.983 2.32762 291.032 1.5211 289.967C-0.0760415 287.858 -0.007381 285.552 1.70896 283.656C2.49157 282.791 3.20577 281.087 3.29618 279.869C3.38651 278.651 3.49074 277.411 3.52771 277.115C3.5646 276.818 4.74832 276.173 6.1581 275.682C8.82142 274.754 11.3428 275.497 13.1076 277.731C13.5626 278.307 14.864 278.897 15.9997 279.043C17.7334 279.266 18.1993 279.945 18.9037 283.276C19.5802 286.474 20.302 287.593 22.6292 289.048C24.2166 290.041 26.2371 291.512 27.1191 292.317C28.0011 293.122 29.102 293.781 29.5658 293.781C30.0295 293.781 31.7274 295.034 33.3389 296.566C36.453 299.526 41.2917 301.639 42.0704 300.38C42.3433 299.938 43.3273 299.936 44.4815 300.375C45.5539 300.782 47.1738 300.922 48.0812 300.685C48.9886 300.447 49.9811 300.658 50.2868 301.152C50.9755 302.267 54.0537 302.347 54.0537 301.25C54.0537 300.81 54.5275 300.631 55.1066 300.853C55.6857 301.075 57.9862 300.099 60.2186 298.684C62.451 297.268 64.9565 295.979 65.7863 295.82C71.683 292.437 77.5048 285.619 82.1782 279.901C82.1782 279.379 83.3238 277.648 84.7239 276.054C86.5222 273.381 88.5103 272.767 89.06 267.446C89.8033 260.25 92.7494 260.401 96.8953 253.104C97.872 250.446 97.0819 250.481 99.0066 248.29C100.744 245.351 104.116 243.434 107.95 243.207C109.472 243.117 111.722 242.55 112.95 241.947C114.179 241.345 116.04 240.84 117.086 240.825C118.132 240.811 119.711 240.252 120.594 239.585C121.477 238.917 123.041 238.37 124.068 238.37C125.096 238.37 126.235 237.883 126.599 237.288C127.497 235.819 131.446 234.385 135.946 233.895C137.993 233.673 140.603 233.259 141.746 232.977C143.406 232.567 144.439 233.078 146.881 235.519C149.279 238.199 153.61 239.099 157.119 239.197C162.436 239.197 169.291 240.952 175.193 243.823C177.443 244.918 179.997 245.814 180.867 245.814C181.737 245.814 184.496 247.861 186.998 250.362C190.421 253.785 192.191 254.943 194.146 255.041C199.511 255.127 199.825 253.691 203.735 256.957C206.034 258.146 206.349 258.132 207.76 256.786C208.602 255.982 209.818 255.204 210.462 255.056C211.107 254.908 212.378 254.103 213.288 253.267C214.198 252.43 216.898 251.113 219.287 250.338C223.82 248.869 230.246 243.969 230.246 241.981C230.246 241.348 230.599 240.183 231.031 239.393C233.982 233.991 237.639 224.146 237.576 221.769C237.535 220.211 237.916 217.888 238.423 216.607C238.93 215.327 239.345 213.004 239.345 211.446C239.345 209.887 240.297 205.857 241.46 202.489C243.37 196.96 243.535 195.494 243.16 187.388C242.932 182.451 242.725 177.924 242.7 177.328C241.099 173.682 244.397 171.872 239.766 163.952C238.458 161.715 238.052 157.167 237.397 143.676C237.28 141.256 237.373 141.195 241.136 141.195C243.259 141.195 244.851 141.34 244.674 141.517C244.051 142.142 250.116 144.916 252.104 144.916C253.331 144.916 254.863 145.852 256.036 147.319C258.504 150.406 268.481 155.666 271.881 155.673C273.322 155.676 275.567 156.234 276.87 156.913C278.173 157.593 279.899 158.149 280.705 158.149C281.511 158.149 283.236 158.71 284.539 159.397C287.725 161.074 296.443 160.806 302.134 158.855C307.404 157.049 312.132 156.95 316.633 158.553C322.629 160.754 320.723 162.14 334.202 161.971C345.443 161.519 339.328 161.432 343.337 161.188C343.801 161.16 346.27 161.643 348.975 162.743C352.548 164.195 355.48 164.743 359.693 164.748C369.698 164.759 375.651 165.32 376.172 165.712C377.567 166.761 378.388 166.913 382.163 166.871C384.508 166.845 385.712 167.3 386.07 167.411C398.11 171.141 406.372 168.219 410.01 170.024C413.257 171.636 436.494 171.35 439.14 169.933C440.035 169.455 441.139 169.025 441.594 168.978C442.049 168.93 443.538 168.551 444.902 168.134C446.267 167.717 449.545 167.277 452.14 166.838C459.868 165.532 458.352 166.092 460.287 165.136C461.791 164.359 463.734 164.375 465.399 164.346C472.551 164.221 479.137 160.022 479.717 159.921C486.479 158.743 481.423 158.948 489.157 158.965C495.264 158.979 504.047 156.967 504.047 155.554C505.917 154.682 508.299 153.877 510.321 152.187C511.984 150.727 513.765 149.469 514.279 149.392C515.154 149.26 523.819 144.178 524.727 143.265C524.954 143.036 525.553 142.773 526.057 142.681C530.553 140.945 534.075 139.365 539.034 136.786C541.984 135.251 553.209 132.755 564.661 132.577C571.1 132.477 576.899 132.097 577.548 131.734C578.198 131.37 579.428 131.256 580.283 131.479C581.178 131.713 583.251 130.906 585.172 129.575C587.507 127.957 589.857 127.152 593.013 126.891C595.492 126.685 597.52 126.224 597.52 125.866C597.52 124.831 604.446 121.76 606.779 121.76C607.945 121.76 610.235 121.201 611.868 120.519C613.501 119.837 615.916 119.279 617.234 119.279C618.552 119.279 620.518 118.612 621.603 117.798C622.688 116.984 624.507 115.843 625.644 115.262C629.929 113.074 632.855 111.312 634.977 109.643C636.182 108.696 638.607 107.691 640.365 107.409C642.124 107.128 644.234 106.157 645.054 105.251C645.874 104.345 646.861 103.586 647.184 103.916C653.589 101.797 654.522 98.6581 660.514 96.2986C662.55 95.4226 665.31 94.4959 666.777 94.4859C668.972 94.4709 669.706 93.9639 670.913 91.6295C672.817 87.9468 684.145 75.6237 686.985 74.1463C690.296 72.4235 691.929 70.4756 691.415 68.8592C690.105 64.7319 695.309 62.4675 699.31 65.4245C701.77 67.2433 702.655 67.2384 711.469 65.3568C714.805 64.6446 716.289 63.8069 717.858 61.751C719.65 59.4012 720.537 59.0008 725.092 58.4844C727.948 58.1607 731.494 57.3977 732.973 56.7888C734.451 56.18 735.661 55.8875 735.661 56.1388C735.661 56.3902 736.977 55.4407 738.585 54.029C740.193 52.6173 741.989 51.4623 742.577 51.4623C743.164 51.4623 744.547 50.487 745.65 49.2951C746.753 48.1031 749.197 46.4587 751.082 45.6409C754.021 44.3654 754.702 43.5703 755.872 40.0487C757.419 35.3935 758.727 33.9843 763.225 32.1268C764.963 31.4088 765.529 30.2932 765.949 30.1148C767.257 29.56 767.767 29.1446 771.303 30.1359C774.911 31.1475 778.174 29.7203 782.089 25.4194C785.166 22.0388 787.789 21.0711 796.601 20.0663C800.794 19.5881 804.575 18.5852 806.956 17.3195C809.019 16.2231 811.463 15.1281 812.387 14.8864C813.424 14.6154 814.281 13.479 814.623 11.9231C815.195 9.31878 815.335 9.28368 820.197 10.5255C822.166 11.0283 822.564 10.7703 823.585 8.32876C824.221 6.80721 825.315 5.08721 826.015 4.50655C829.271 1.80697 846.59 -0.856215 847.831 1.1518C848.119 1.61717 847.485 3.17206 846.423 4.60714C844.975 6.56258 844.42 8.56327 844.205 12.592C844.048 15.5486 843.548 18.9349 843.095 20.117C842.32 22.1406 837.082 25.8245 834.98 25.8245C829.499 27.4864 822.773 31.2612 818.533 33.1148C816.222 34.125 801.486 40.3023 802.231 41.5077C802.43 41.8293 801.306 42.706 799.733 43.4559C798.16 44.2058 796.873 45.1975 796.873 45.6597C796.873 46.1219 796.546 46.5001 796.146 46.5001C795.45 46.5001 790.62 50.6721 786.022 55.2454C784.192 57.0652 781.454 63.2029 781.782 64.748C781.837 65.0047 780.374 66.4933 778.533 68.0561C776.691 69.6188 774.157 71.8278 772.903 72.965C770.631 75.0242 768.009 76.4651 761.717 79.11C757.734 80.7848 749.832 88.0562 746.832 92.8076C745.619 94.7289 743.495 96.7389 742.021 97.3596C740.57 97.9708 738.129 99.5974 736.595 100.974C735.061 102.351 732.735 103.713 731.425 104C729.515 104.594 728.421 105.607 726.375 105.821C724.909 105.924 722.77 106.704 721.62 107.553C720.471 108.403 718.309 109.73 716.815 110.502C714.864 112.555 713.136 113.702 710.682 115.381C709.086 116.842 707.632 118.081 707.451 118.134C707.271 118.186 705.83 118.513 704.249 118.86C701.164 119.538 696.688 122.142 693.681 125.011C692.657 125.987 691.808 126.493 691.793 126.134C691.779 125.775 691.314 126.071 690.759 126.793C690.205 127.514 688.114 129.189 686.112 130.515C681.064 133.858 680.835 133.989 679.206 134.492C678.411 134.738 676.844 137.009 675.725 139.539C673.588 144.37 672.314 145.984 670.293 146.42C669.621 146.565 667.294 148.612 665.121 150.969C661.347 155.064 659.805 158.53 657.484 168.141C657.2 169.315 656.073 171.241 654.978 172.421C653.217 174.32 652.383 174.557 647.708 174.486C643.505 174.423 641.905 174.778 639.866 176.23C637.437 177.959 636.937 178.008 630.242 177.176L623.18 176.299L618.078 179.009C615.272 180.5 612.686 182.277 612.33 182.96C611.975 183.642 610.859 185.95 609.852 188.089C608.844 190.229 606.773 193.186 605.251 194.661C603.728 196.136 602.483 197.695 602.483 198.124C602.483 198.553 601.334 200.771 599.929 203.053C598.339 205.637 597.514 207.923 597.742 209.115C597.632 210.911 596.765 211.55 596.692 213.793C596.692 215.794 596.179 219.138 595.551 221.223C594.415 224.996 594.646 227.963 596.543 233.976C599.168 242.299 612.554 264.801 614.392 263.533C614.207 263.871 614.301 265.292 614.063 266.092C617.104 270.767 620.338 274.148 624.106 278.207C627.994 282.394 628.576 282.85 631.2 285.428C632.387 286.595 634.125 288.419 635.151 289.119C634.959 289.771 639.717 295.215 643.363 299.021C646.23 302.014 651.886 309.177 652.993 311.217C653.59 312.317 654.13 314.891 654.193 316.938C654.271 319.445 655.005 321.672 656.442 323.762C657.731 325.635 658.405 327.521 658.143 328.522C657.675 330.311 659.301 332.908 660.446 332.201C660.831 331.963 661.871 332.221 662.757 332.774C664.02 333.562 664.21 334.193 663.638 335.697C663.118 337.086 663.7 337.664 662.898 338.818C662.348 339.48 662.1 340.349 662.347 340.748C662.593 341.147 662.346 341.488 661.798 341.506C661.249 341.524 660.266 341.679 659.614 341.85C658.943 342.027 657.915 341.131 657.245 339.785C656.594 338.478 655.825 337.771 655.536 338.215C653.555 339.156 651.707 339.611 648.366 336.928C647.681 336.379 642.935 332.663 640.737 332.111C639.635 331.835 637.13 331.564 635.17 331.51C633.21 331.455 631.769 331.143 631.968 330.815C624.947 327.375 617.363 327.68 609.928 329.558C608.335 330.267 606.846 330.837 606.619 330.825C606.391 330.812 604.902 331.347 603.31 332.012C601.718 332.677 600.229 333.245 600.001 333.273C597.787 333.552 594.908 335.921 593.365 338.733C590.736 343.525 589.264 345.054 587.258 345.075C586.305 345.085 584.595 345.821 583.457 346.711C580.592 348.952 579.287 348.783 574.604 345.562C569.032 341.73 562.46 338.483 559.656 338.176C558.374 338.035 556.971 337.707 556.536 337.445C554.667 336.319 544.527 334.152 539.127 333.724C531.46 333.117 520.886 333.278 519.404 334.76C514.717 335.227 509.931 338.524 505.809 342.166C504.385 343.788 503.219 345.567 503.218 346.119C503.217 346.672 502.049 349.338 500.622 352.045C498.163 356.708 498.08 357.166 499.015 360.816C499.558 362.933 499.748 365.744 499.436 367.06C500.669 370.883 499.816 372.392 497.025 379.792C495.259 387.037 494.161 389.894 492.418 391.784C491.159 393.149 489.227 395.811 488.312 397.793C486.442 401.843 487.426 400.997 485.505 404.203C484.734 407.275 482.033 407.978 478.016 406.154C473.341 404.031 470.459 404.229 464.619 407.078C460.688 408.995 459.391 410.193 458.516 412.247C456.701 416.504 456.012 415.874 453.824 417.856C451.262 420.36 445.092 423.574 442.783 423.606C442.072 423.616 439.865 424.41 437.879 425.369C435.892 426.329 431.303 427.975 427.681 429.028C422.142 430.638 420.493 431.554 417.299 434.793C414.203 437.933 413.073 438.58 411.175 438.301C409.894 438.113 408.652 438.275 408.413 438.661C408.174 439.047 406.795 439.905 405.347 440.568C403.9 441.231 401.785 442.528 400.648 443.451C397.813 445.75 390.224 448.581 385.937 448.939C383.987 449.102 381.616 449.65 380.666 450.158C379.596 450.731 377.258 450.872 374.512 450.529C370.14 449.983 370.036 450.021 366.394 453.506C364.364 455.448 362.84 457.257 363.007 457.526C363.173 457.796 362.15 458.105 360.733 458.213C359.316 458.321 357.81 458.587 356.941 458.568C354.823 458.521 356.738 459.162 354.128 458.729C352.317 458.428 338.517 456.5 330.75 456.576C317.049 456.711 315.066 456.815 314.255 457.436C313.773 457.806 310.185 459.087 306.282 460.284C298.505 462.669 288.046 467.254 284.914 469.651C283.022 471.099 281.139 472.932 275.691 478.622C272.883 481.555 269.768 488.273 270.02 490.856C270.117 491.86 269.91 493.348 269.559 494.163C268.466 496.699 269.593 503.809 271.464 506.182C275.318 511.073 278.296 517.465 278.052 520.323C277.756 523.776 277.113 523.942 272.7 521.709Z" fill="#26A7C4"/>
</svg>
