<svg width="91" height="59" viewBox="0 0 91 59" fill="none" xmlns="http://www.w3.org/2000/svg">
<path d="M31.9127 54.4409C31.7293 54.3482 31.4931 54.1916 31.3879 54.0929C31.2827 53.9941 31.1693 53.9406 31.1359 53.9739C31.1026 54.0071 30.9077 54.0393 30.7028 54.0453C30.498 54.0514 30.1959 54.0924 30.0316 54.1365C29.8672 54.1806 29.7526 54.1846 29.7768 54.1455C29.8601 54.0109 29.5934 54.0744 29.3838 54.239C29.1502 54.4226 28.7363 54.4674 28.5933 54.3246C28.5223 54.2536 28.5269 54.1702 28.6128 53.9735C28.7883 53.5719 28.7302 52.855 28.4864 52.4141C28.3729 52.209 28.2475 52.0071 28.2076 51.9654C28.1678 51.9237 28.1346 51.7341 28.1339 51.6443C28.0971 51.7224 27.979 51.3312 27.7804 51.1391C27.6243 50.9973 27.4966 50.8497 27.4966 50.8112C27.4966 50.7727 27.279 50.5798 27.0131 50.3824C26.5612 50.047 26.5026 50.0256 26.1151 50.0542C25.7011 50.0848 25.1596 50.1417 24.7825 50.1944C24.6728 50.2098 24.4102 50.2279 24.1991 50.2348C23.988 50.2416 23.8319 50.2741 23.8522 50.307C23.8726 50.3399 23.8118 50.3728 23.7172 50.3801C23.6226 50.3874 23.3836 50.4345 23.186 50.4847C22.9885 50.535 22.5825 50.6106 22.2838 50.6527C21.9851 50.6948 21.59 50.7817 21.4057 50.8459C20.9124 51.0176 20.7401 50.9948 20.1251 50.677C19.6829 50.4484 19.6294 50.295 19.2061 50.3884C19.0167 50.4302 18.897 50.4407 18.8013 50.3538C18.4782 50.0603 18.4581 50.0866 18.2369 50.0406C18.2369 50.1042 17.0505 49.5459 16.743 49.3341C16.2577 48.9999 16.2731 49.0594 16.032 48.8037C15.7184 48.5326 15.6225 48.4932 15.276 48.4932C15.0577 48.4932 14.7546 48.4412 14.6023 48.3776C14.4501 48.3141 14.3255 48.2851 14.3255 48.3131C14.3255 48.3412 14.277 48.2979 14.2177 48.2169C14.1284 48.0949 14.045 48.0785 13.7333 48.1211C13.242 48.1884 13.0725 48.0344 12.31 47.2826C11.9725 46.9499 11.6299 46.7391 11.5486 46.7391C11.4057 46.7391 11.2596 46.6191 11.087 46.4724C10.905 46.064 10.3635 46.1453 10.2983 45.8804C10.2608 45.8804 10.1181 45.6279 10.1066 45.2442C10.0879 44.6205 10.0655 44.5297 9.89538 44.3871C9.69662 44.2205 9.61483 43.9026 9.72518 43.7255C9.76249 43.4317 9.90307 43.374 9.77549 43.0715C9.72194 42.9716 9.7228 42.8512 9.7781 42.706C9.84721 42.5244 9.83227 42.4593 9.68566 42.3035C9.58947 42.2012 9.45239 42.099 9.38103 42.0764C9.30967 42.0538 9.18612 41.9251 9.10648 41.7904C8.98141 41.579 8.92167 41.5485 8.66791 41.5668C8.3076 41.5928 8.17907 41.5208 8.17882 41.2929C8.17872 41.1968 8.03503 40.907 7.85952 40.649C7.68401 40.3909 7.54042 40.1295 7.54042 40.0681C7.54042 40.0067 7.48282 39.8687 7.41243 39.7614C7.31041 39.6059 7.29566 39.4548 7.33973 39.0165C7.40034 38.4137 7.30875 38.1273 6.92364 37.7159C6.75239 37.533 6.73121 37.4541 6.77374 37.1578C6.80098 36.968 6.82849 36.5724 6.83486 36.2787C6.84222 35.9403 6.87854 35.7504 6.93401 35.7604C7.06398 35.784 7.00198 35.4315 6.83366 35.1898C6.75287 35.0739 6.646 34.8589 6.59617 34.7121C6.54635 34.5653 6.39769 34.3225 6.26582 34.1724C6.13395 34.0224 6.00509 33.8017 5.97946 33.6819C5.95384 33.5621 5.89479 33.3744 5.84823 33.2648C5.72867 32.9832 5.697 32.5507 5.78404 32.3882C5.83443 32.2942 5.82163 32.2025 5.7438 32.0998C5.58968 31.8964 5.59631 31.6741 5.76193 31.4913C5.83746 31.408 5.90638 31.2437 5.9151 31.1263C5.92382 31.0088 5.93388 30.8894 5.93744 30.8608C5.941 30.8322 6.05523 30.77 6.19128 30.7226C6.44829 30.6331 6.6916 30.7048 6.86191 30.9201C6.90581 30.9757 7.0314 31.0326 7.141 31.0466C7.3083 31.0681 7.35326 31.1336 7.42124 31.4547C7.48652 31.7631 7.55617 31.8709 7.78075 32.0112C7.93394 32.1069 8.12891 32.2487 8.21403 32.3263C8.29913 32.404 8.40538 32.4675 8.45013 32.4675C8.49488 32.4675 8.65873 32.5883 8.81424 32.736C9.11475 33.0213 9.58168 33.2251 9.65683 33.1036C9.68317 33.061 9.77812 33.0609 9.8895 33.1031C9.993 33.1425 10.1493 33.1559 10.2369 33.133C10.3244 33.1101 10.4202 33.1304 10.4497 33.1781C10.5162 33.2855 10.8132 33.2932 10.8132 33.1876C10.8132 33.1451 10.8589 33.1279 10.9148 33.1493C10.9707 33.1707 11.1927 33.0766 11.4081 32.9401C11.6236 32.8036 11.8654 32.6794 11.9454 32.664C12.5145 32.3379 13.0763 31.6806 13.5273 31.1294C13.5273 31.0791 13.6378 30.9121 13.7729 30.7585C13.9465 30.5008 14.1383 30.4416 14.1914 29.9286C14.2631 29.2349 14.5474 29.2495 14.9475 28.546C15.0417 28.2898 14.9655 28.2931 15.1512 28.0819C15.3188 27.7985 15.6442 27.6138 16.0143 27.5919C16.1611 27.5832 16.3782 27.5285 16.4968 27.4704C16.6153 27.4123 16.7949 27.3636 16.8959 27.3622C16.9968 27.3609 17.1492 27.307 17.2344 27.2427C17.3196 27.1783 17.4705 27.1256 17.5697 27.1256C17.6689 27.1256 17.7788 27.0786 17.8139 27.0213C17.9005 26.8796 18.2817 26.7414 18.7159 26.6942C18.9134 26.6727 19.1653 26.6329 19.2756 26.6056C19.4358 26.5661 19.5355 26.6154 19.7711 26.8507C20.0025 27.1091 20.4205 27.1958 20.7591 27.2053C21.2722 27.2053 21.9337 27.3745 22.5032 27.6513C22.7204 27.7568 22.9668 27.8432 23.0507 27.8432C23.1347 27.8432 23.401 28.0405 23.6424 28.2817C23.9728 28.6116 24.1435 28.7233 24.3322 28.7327C24.8499 28.741 24.8802 28.6026 25.2575 28.9175C25.4794 29.0321 25.5098 29.0308 25.6459 28.9009C25.7272 28.8235 25.8445 28.7484 25.9067 28.7342C25.9689 28.7199 26.0917 28.6423 26.1795 28.5617C26.2673 28.4811 26.5278 28.354 26.7583 28.2794C27.1958 28.1377 27.8159 27.6653 27.8159 27.4737C27.8159 27.4126 27.8499 27.3003 27.8916 27.2242C28.1764 26.7034 28.5293 25.7543 28.5233 25.5252C28.5193 25.3749 28.5561 25.1509 28.605 25.0275C28.6539 24.9041 28.6939 24.6801 28.6939 24.5299C28.6939 24.3797 28.7858 23.9911 28.898 23.6664C29.0823 23.1334 29.0983 22.9921 29.0621 22.2106C29.0401 21.7346 29.0201 21.2982 29.0177 21.2408C28.8632 20.8893 29.1815 20.7148 28.7346 19.9513C28.6083 19.7356 28.5691 19.2971 28.506 17.9965C28.4947 17.7633 28.5036 17.7574 28.8668 17.7574C29.0717 17.7574 29.2253 17.7714 29.2082 17.7885C29.1481 17.8486 29.7334 18.1161 29.9251 18.1161C30.0436 18.1161 30.1914 18.2064 30.3046 18.3478C30.5428 18.6454 31.5056 19.1525 31.8337 19.1531C31.9727 19.1534 32.1894 19.2072 32.3151 19.2727C32.4409 19.3382 32.6074 19.3918 32.6852 19.3918C32.7629 19.3918 32.9295 19.446 33.0552 19.5121C33.3626 19.6739 34.2039 19.648 34.7531 19.4599C35.2616 19.2857 35.7179 19.2763 36.1523 19.4308C36.7309 19.643 36.5469 19.7765 37.8477 19.7603C38.9325 19.7167 38.3424 19.7084 38.7292 19.6848C38.774 19.6821 39.0122 19.7287 39.2733 19.8347C39.6181 19.9747 39.9011 20.0275 40.3076 20.028C41.2731 20.0291 41.8475 20.0832 41.8978 20.121C42.0324 20.2221 42.1117 20.2367 42.476 20.2327C42.7023 20.2302 42.8185 20.2741 42.8529 20.2847C44.0149 20.6444 44.8121 20.3626 45.1632 20.5367C45.4765 20.6921 47.7189 20.6644 47.9743 20.5279C48.0606 20.4818 48.1671 20.4403 48.211 20.4358C48.2549 20.4312 48.3986 20.3946 48.5303 20.3545C48.6621 20.3143 48.9783 20.2718 49.2288 20.2295C49.9746 20.1036 49.8283 20.1576 50.015 20.0654C50.1601 19.9905 50.3476 19.992 50.5082 19.9892C51.1985 19.9772 51.834 19.5724 51.89 19.5626C52.5425 19.4491 52.0546 19.4689 52.801 19.4705C53.3903 19.4718 54.2378 19.2779 54.2378 19.1417C54.4182 19.0576 54.6481 18.98 54.8433 18.817C55.0038 18.6763 55.1756 18.5551 55.2252 18.5476C55.3096 18.5349 56.1458 18.045 56.2334 17.9569C56.2554 17.9349 56.3131 17.9095 56.3618 17.9007C56.7957 17.7333 57.1356 17.581 57.6141 17.3323C57.8988 17.1844 58.982 16.9437 60.0871 16.9265C60.7084 16.9169 61.2681 16.8803 61.3307 16.8453C61.3934 16.8102 61.5122 16.7992 61.5946 16.8207C61.681 16.8433 61.8811 16.7654 62.0664 16.6371C62.2917 16.4812 62.5186 16.4036 62.8231 16.3784C63.0623 16.3585 63.258 16.3141 63.258 16.2796C63.258 16.1798 63.9264 15.8837 64.1515 15.8837C64.264 15.8837 64.485 15.8299 64.6426 15.7641C64.8002 15.6983 65.0332 15.6445 65.1604 15.6445C65.2876 15.6445 65.4774 15.5803 65.5821 15.5018C65.6868 15.4233 65.8623 15.3133 65.972 15.2573C66.3855 15.0463 66.6679 14.8765 66.8726 14.7156C66.9889 14.6243 67.2229 14.5274 67.3926 14.5003C67.5624 14.4732 67.766 14.3795 67.8451 14.2922C67.9242 14.2049 68.0194 14.1317 68.0507 14.1635C68.6687 13.9592 68.7588 13.6566 69.337 13.4291C69.5335 13.3447 69.7997 13.2553 69.9414 13.2544C70.1532 13.2529 70.224 13.2041 70.3405 12.979C70.5242 12.624 71.6174 11.436 71.8914 11.2935C72.211 11.1274 72.3685 10.9397 72.319 10.7838C72.1925 10.3859 72.6947 10.1676 73.0808 10.4527C73.3182 10.6281 73.4036 10.6276 74.2541 10.4462C74.5761 10.3775 74.7193 10.2968 74.8707 10.0986C75.0436 9.87203 75.1292 9.83343 75.5688 9.78365C75.8444 9.75244 76.1866 9.67888 76.3293 9.62018C76.4719 9.56149 76.5887 9.53329 76.5887 9.55752C76.5887 9.58175 76.7157 9.49022 76.8708 9.35412C77.026 9.21803 77.1994 9.10668 77.2561 9.10668C77.3127 9.10668 77.4462 9.01266 77.5526 8.89774C77.6591 8.78283 77.8949 8.62431 78.0768 8.54547C78.3605 8.4225 78.4262 8.34585 78.5391 8.00634C78.6883 7.55756 78.8146 7.4217 79.2486 7.24264C79.4164 7.17341 79.471 7.06587 79.5115 7.04866C79.6377 6.99519 79.6869 6.95513 80.0281 7.0507C80.3763 7.14822 80.6913 7.01063 81.069 6.59601C81.3659 6.2701 81.6191 6.17681 82.4695 6.07994C82.8741 6.03384 83.239 5.93716 83.4687 5.81514C83.6677 5.70943 83.9036 5.60388 83.9928 5.58057C84.0929 5.55444 84.1756 5.44489 84.2086 5.29489C84.2638 5.04382 84.2773 5.04044 84.7465 5.16015C84.9365 5.20863 84.9749 5.18376 85.0734 4.94838C85.1348 4.80169 85.2403 4.63588 85.3079 4.5799C85.6221 4.31964 87.2934 4.0629 87.4132 4.25648C87.4409 4.30135 87.3798 4.45125 87.2773 4.5896C87.1376 4.77811 87.084 4.97099 87.0633 5.35938C87.0481 5.64441 86.9999 5.97087 86.9562 6.08483C86.8813 6.27992 86.3759 6.63506 86.1731 6.63506C85.6441 6.79528 84.995 7.15919 84.5859 7.33789C84.3629 7.43527 82.9409 8.03079 83.0128 8.14701C83.0319 8.17801 82.9235 8.26252 82.7717 8.33482C82.6199 8.40711 82.4957 8.50272 82.4957 8.54728C82.4957 8.59184 82.4641 8.6283 82.4255 8.6283C82.3583 8.6283 81.8923 9.03049 81.4485 9.47139C81.2719 9.64682 81.0077 10.2385 81.0394 10.3875C81.0447 10.4122 80.9036 10.5557 80.7258 10.7064C80.5481 10.8571 80.3036 11.07 80.1826 11.1797C79.9633 11.3782 79.7103 11.5171 79.1032 11.7721C78.7187 11.9335 77.9562 12.6345 77.6667 13.0926C77.5496 13.2778 77.3446 13.4716 77.2025 13.5314C77.0625 13.5903 76.8268 13.7472 76.6788 13.8799C76.5308 14.0126 76.3063 14.1439 76.1799 14.1716C75.9956 14.2289 75.89 14.3265 75.6926 14.3471C75.5512 14.3571 75.3447 14.4322 75.2338 14.5141C75.1229 14.596 74.9142 14.724 74.7701 14.7984C74.5817 14.9963 74.415 15.1069 74.1782 15.2687C74.0242 15.4096 73.8839 15.5291 73.8664 15.5341C73.849 15.5392 73.71 15.5707 73.5575 15.6042C73.2597 15.6695 72.8278 15.9206 72.5376 16.1972C72.4388 16.2913 72.3568 16.34 72.3554 16.3054C72.354 16.2708 72.3091 16.2994 72.2557 16.3689C72.2022 16.4385 72.0004 16.5999 71.8072 16.7277C71.3201 17.05 71.298 17.0627 71.1408 17.1112C71.064 17.1349 70.9129 17.3538 70.8049 17.5977C70.5986 18.0635 70.4757 18.2191 70.2806 18.2611C70.2158 18.2751 69.9913 18.4724 69.7816 18.6997C69.4173 19.0944 69.2686 19.4285 69.0446 20.3551C69.0172 20.4683 68.9084 20.654 68.8028 20.7677C68.6328 20.9508 68.5523 20.9737 68.1012 20.9668C67.6956 20.9607 67.5412 20.995 67.3444 21.1349C67.11 21.3016 67.0618 21.3064 66.4157 21.2262L65.7342 21.1416L65.2419 21.4029C64.9711 21.5465 64.7215 21.7179 64.6872 21.7837C64.6529 21.8495 64.5453 22.072 64.448 22.2783C64.3507 22.4845 64.151 22.7696 64.004 22.9118C63.8571 23.054 63.7369 23.2042 63.7369 23.2456C63.7369 23.287 63.626 23.5008 63.4905 23.7208C63.337 23.9699 63.2574 24.1903 63.2794 24.3052C63.2688 24.4784 63.1851 24.5399 63.1782 24.7562C63.1782 24.9491 63.1286 25.2715 63.068 25.4725C62.9584 25.8363 62.9807 26.1223 63.1637 26.7019C63.4171 27.5043 64.7088 29.6736 64.8862 29.5514C64.8683 29.584 64.8774 29.721 64.8545 29.7981C65.1479 30.2488 65.46 30.5748 65.8236 30.966C66.1988 31.3697 66.2549 31.4136 66.5082 31.6622C66.6227 31.7747 66.7905 31.9505 66.8894 32.018C66.8709 32.0809 67.3301 32.6057 67.6819 32.9727C67.9585 33.2612 68.5044 33.9518 68.6112 34.1484C68.6688 34.2544 68.7209 34.5026 68.727 34.6999C68.7345 34.9416 68.8053 35.1563 68.9441 35.3578C69.0684 35.5383 69.1334 35.7202 69.1082 35.8167C69.063 35.9891 69.22 36.2395 69.3304 36.1713C69.3676 36.1484 69.4679 36.1733 69.5534 36.2266C69.6753 36.3026 69.6936 36.3634 69.6384 36.5083C69.5882 36.6423 69.6444 36.6981 69.567 36.8093C69.514 36.8731 69.49 36.9568 69.5138 36.9953C69.5376 37.0338 69.5138 37.0667 69.4608 37.0684C69.4079 37.0701 69.3131 37.0851 69.2501 37.1016C69.1854 37.1186 69.0862 37.0323 69.0215 36.9025C68.9587 36.7765 68.8845 36.7084 68.8565 36.7512C68.6655 36.8419 68.4871 36.8857 68.1646 36.6271C68.0986 36.5741 67.6406 36.2159 67.4285 36.1627C67.3222 36.1361 67.0804 36.11 66.8912 36.1047C66.7021 36.0995 66.563 36.0693 66.5822 36.0377C65.9047 35.7061 65.1729 35.7355 64.4553 35.9166C64.3017 35.9849 64.158 36.0398 64.136 36.0387C64.1141 36.0375 63.9704 36.089 63.8168 36.1531C63.6631 36.2173 63.5194 36.272 63.4975 36.2747C63.2838 36.3016 63.0059 36.53 62.8571 36.801C62.6033 37.2631 62.4613 37.4105 62.2678 37.4125C62.1758 37.4135 62.0107 37.4844 61.901 37.5702C61.6244 37.7863 61.4986 37.7699 61.0466 37.4594C60.5089 37.09 59.8747 36.7769 59.6041 36.7473C59.4804 36.7338 59.345 36.7021 59.3031 36.6769C59.1227 36.5684 58.1442 36.3595 57.623 36.3182C56.8832 36.2597 55.8628 36.2752 55.7197 36.4181C55.2675 36.4631 54.8056 36.7809 54.4078 37.132C54.2704 37.2884 54.1579 37.4599 54.1578 37.5132C54.1577 37.5665 54.045 37.8235 53.9073 38.0844C53.6701 38.534 53.662 38.5781 53.7523 38.93C53.8046 39.1341 53.8229 39.405 53.7929 39.532C53.9118 39.9005 53.8295 40.046 53.5602 40.7594C53.3898 41.4578 53.2838 41.7333 53.1156 41.9155C52.9941 42.047 52.8077 42.3037 52.7194 42.4948C52.5389 42.8852 52.6339 42.8037 52.4486 43.1127C52.3741 43.4089 52.1135 43.4767 51.7258 43.3008C51.2747 43.0961 50.9966 43.1153 50.433 43.3899C50.0537 43.5747 49.9285 43.6902 49.844 43.8882C49.6689 44.2986 49.6024 44.2378 49.3912 44.429C49.1441 44.6704 48.5486 44.9802 48.3258 44.9833C48.2572 44.9843 48.0443 45.0607 47.8525 45.1533C47.6608 45.2458 47.218 45.4045 46.8685 45.506C46.334 45.6612 46.1748 45.7495 45.8666 46.0617C45.5678 46.3645 45.4588 46.4268 45.2756 46.4C45.152 46.3819 45.0321 46.3975 45.0091 46.4347C44.9861 46.4719 44.8529 46.5546 44.7133 46.6185C44.5736 46.6824 44.3695 46.8075 44.2597 46.8964C43.9862 47.1181 43.2538 47.391 42.8401 47.4255C42.652 47.4412 42.4231 47.4941 42.3315 47.543C42.2282 47.5983 42.0027 47.6118 41.7376 47.5788C41.3158 47.5261 41.3057 47.5298 40.9542 47.8658C40.7583 48.053 40.6113 48.2274 40.6273 48.2534C40.6434 48.2794 40.5447 48.3091 40.408 48.3195C40.2712 48.33 40.1259 48.3557 40.042 48.3538C39.8377 48.3493 40.0224 48.4111 39.7705 48.3693C39.5958 48.3403 38.2641 48.1544 37.5146 48.1618C36.1924 48.1748 36.0011 48.1848 35.9228 48.2447C35.8763 48.2803 35.5301 48.4038 35.1534 48.5192C34.4029 48.7491 33.3936 49.1912 33.0913 49.4223C32.9088 49.5619 32.727 49.7385 32.2013 50.2871C31.9303 50.5699 31.6298 51.2176 31.6541 51.4665C31.6635 51.5633 31.6435 51.7068 31.6096 51.7854C31.5042 52.0298 31.6129 52.7152 31.7934 52.944C32.1654 53.4155 32.4527 54.0318 32.4291 54.3073C32.4006 54.6401 32.3386 54.6562 31.9127 54.4409Z" fill="#26A7C3"/>
</svg>
